/* XPM */
static char *image_xpm[] = {
/* width height ncolors chars_per_pixel */
"32 32 12 1",
"  c #ffffff",
". c #f77b3a",
"+ c #ffefe6",
"@ c #ffe6d6",
"# c #f78c52",
"$ c #f76b29",
"% c #ffc5a5",
"& c #ffad84",
"* c #ffad7b",
"= c #f77331",
"- c #ffad8c",
"; c #f76b21",
"                                ",
"                                ",
"                                ",
"                                ",
"                    ;;;;;;;;;;; ",
"                    ;;;;;;;;;;; ",
"                    @;        ; ",
"     ;;              ;        ; ",
"     ;;;            ;.        ; ",
"     ; ;;         *;+         ; ",
"     ;  ;;       *;+          ; ",
"     ;   ;;     *;+           ; ",
";;;;;;    ;;   &;+            ; ",
" ;         ;; -;+           ; ; ",
"  ;         ;;;+           ;;;; ",
"   ;        ;;            ;;  ; ",
"    ;      $;  ;         ;;     ",
"     ;     ;  ;;;       ;;      ",
"      ;   ;;;;; ;;     ;;       ",
"       ; ;;;;%   ;;   ;;        ",
"        ;; ;;     ;; ;;         ",
"       ;; ;;;;     ;;;          ",
"       ;;;; ;;;     ;;          ",
"        $; ;; ;;   ; ;          ",
"         ;;; ;;;; # ;;          ",
"          ;;;; $; ;;;           ",
"           ;; =;;; ;            ",
"            ;;;; ;;             ",
"             $  ;;              ",
"                                ",
"                                ",
"                                ",
};