/* XPM */
static char *image_xpm[] = {
/* width height ncolors chars_per_pixel */
"16 16 9 1",
"  c #fffff7",
". c #ffffff",
"+ c #313a3a",
"@ c #adb5ad",
"# c #f79c6b",
"$ c #3a3a3a",
"% c #b5b5b5",
"& c #ffad7b",
"* c #f76b21",
"................",
".........***** .",
".........*....*.",
"..*......*....*.",
"...*....*.....*.",
"**..*..*......*.",
"*....**.....***.",
".*...**....*....",
"..*.**.*..*.....",
"...*&*..**......",
"...*.**..*......",
"...#*.**.*......",
"....*****.......",
".......*........",
"................",
".%%%%..@%..$+..%",
};