/* XPM */
static char *image_xpm[] = {
/* width height ncolors chars_per_pixel */
"128 128 34 1",
"  c #ffd6bd",
". c #f7844a",
"+ c #ffdece",
"@ c #fff7ef",
"# c #fff7f7",
"$ c #f7ad7b",
"% c #fffff7",
"& c #ffffff",
"* c #f77b3a",
"= c #ffefe6",
"- c #f7945a",
"; c #ffe6d6",
"> c #f7a573",
", c #ffceb5",
"' c #f78c52",
") c #f77329",
"! c #f78442",
"~ c #ffbd94",
"{ c #f77b42",
"] c #f76b29",
"^ c #ffbd9c",
"/ c #f79463",
"( c #ffb58c",
"_ c #f79c6b",
": c #ffd6c5",
"< c #ffad84",
"[ c #ffdec5",
"} c #ffb594",
"| c #ffc5ad",
"1 c #ffe6de",
"2 c #f77331",
"3 c #f78c5a",
"4 c #f7a57b",
"5 c #f76b21",
"&&&&&&&&&&&&&&&&&&&&&&&&&&&&&&&&&&&&&&&&&&&&&&&&&&&&&&&&&&&&&&&&&&&&&&&&&&&&&&&&&&&&&&&&&&&&&&&&&&&&&&&&&&&&&&&&&&&&&&&&&&&&&&&&",
"&&&&&&&&&&&&&&&&&&&&&&&&&&&&&&&&&&&&&&&&&&&&&&&&&&&&&&&&&&&&&&&&&&&&&&&&&&&&&&&&&&&&&&&&&&&&&&&&&&&&&&&&&&&&&&&&&&&&&&&&&&&&&&&&",
"&&&&&&&&&&&&&&&&&&&&&&&&&&&&&&&&&&&&&&&&&&&&&&&&&&&&&&&&&&&&&&&&&&&&&&&&&&&&&&&&&&&&&&&&&&&&&&&&&&&&&&&&&&&&&&&&&&&&&&&&&&&&&&&&",
"&&&&&&&&&&&&&&&&&&&&&&&&&&&&&&&&&&&&&&&&&&&&&&&&&&&&&&&&&&&&&&&&&&&&&&&&&&&&&&&&&&&&&&&&&&&&&&&&&&&&&&&&&&&&&&&&&&&&&&&&&&&&&&&&",
"&&&&&&&&&&&&&&&&&&&&&&&&&&&&&&&&&&&&&&&&&&&&&&&&&&&&&&&&&&&&&&&&&&&&&&&&&&&&&&&&&&&&&&&&&&&&&&&&&&&&&&&&&&&&&&&&&&&&&&&&&&&&&&&&",
"&&&&&&&&&&&&&&&&&&&&&&&&&&&&&&&&&&&&&&&&&&&&&&&&&&&&&&&&&&&&&&&&&&&&&&&&&&&&&&&&&&&&&&&&&&&&&&&&&&&&&&&&&&&&&&&&&&&&&&&&&&&&&&&&",
"&&&&&&&&&&&&&&&&&&&&&&&&&&&&&&&&&&&&&&&&&&&&&&&&&&&&&&&&&&&&&&&&&&&&&&&&&&&&&&&&&&&&&&&&&&&&&&&&&&&&&&&&&&&&&&&&&&&&&&&&&&&&&&&&",
"&&&&&&&&&&&&&&&&&&&&&&&&&&&&&&&&&&&&&&&&&&&&&&&&&&&&&&&&&&&&&&&&&&&&&&&&&&&&&&&&&&&&&&&&&&&&&&&&&&&&&&&&&&&&&&&&&&&&&&&&&&&&&&&&",
"&&&&&&&&&&&&&&&&&&&&&&&&&&&&&&&&&&&&&&&&&&&&&&&&&&&&&&&&&&&&&&&&&&&&&&&&&&&&&&&&&&&&&&&&&&&&&&&&&&&&&&&&&&&&&&&&&&&&&&&&&&&&&&&&",
"&&&&&&&&&&&&&&&&&&&&&&&&&&&&&&&&&&&&&&&&&&&&&&&&&&&&&&&&&&&&&&&&&&&&&&&&&&&&&&&&&&&&&&&&&&&&&&&&&&&&&&&&&&&&&&&&&&&&&&&&&&&&&&&&",
"&&&&&&&&&&&&&&&&&&&&&&&&&&&&&&&&&&&&&&&&&&&&&&&&&&&&&&&&&&&&&&&&&&&&&&&&&&&&&&&&&&&&&&&&&&&&&&&&&&&&&&&&&&&&&&&&&&&&&&&&&&&&&&&&",
"&&&&&&&&&&&&&&&&&&&&&&&&&&&&&&&&&&&&&&&&&&&&&&&&&&&&&&&&&&&&&&&&&&&&&&&&&&&&&&&&&&&&&&&&&&&&&&&&&&&&&&&&&&&&&&&&&&&&&&&&&&&&&&&&",
"&&&&&&&&&&&&&&&&&&&&&&&&&&&&&&&&&&&&&&&&&&&&&&&&&&&&&&&&&&&&&&&&&&&&&&&&&&&&&&&&&&&&&&&&&&&&&&&&&&&&&&&&&&&&&&&&&&&&&&&&&&&&&&&&",
"&&&&&&&&&&&&&&&&&&&&&&&&&&&&&&&&&&&&&&&&&&&&&&&&&&&&&&&&&&&&&&&&&&&&&&&&&&&&&&&&&&&&&&&&&&&&&&&&&&&&&&&&&&&&&&&&&&&&&&&&&&&&&&&&",
"&&&&&&&&&&&&&&&&&&&&&&&&&&&&&&&&&&&&&&&&&&&&&&&&&&&&&&&&&&&&&&&&&&&&&&&&&&&&&&&&&&&&&&&&&&&&&&&&&&&&&&&&&&&&&&&&&&&&&&&&&&&&&&&&",
"&&&&&&&&&&&&&&&&&&&&&&&&&&&&&&&&&&&&&&&&&&&&&&&&&&&&&&&&&&&&&&&&&&&&&&&&&&&&&&&&&&&&&&&&&&&&&&&&&&&&&&&&&&&&&&&&&&&&&&&&&&&&&&&&",
"&&&&&&&&&&&&&&&&&&&&&&&&&&&&&&&&&&&&&&&&&&&&&&&&&&&&&&&&&&&&&&&&&&&&&&&&&&&&&&&&&&&&&&&&&&&&&&&&&&&&&&&&&&&&&&&&&&&&&&&&&&&&&&&&",
"&&&&&&&&&&&&&&&&&&&&&&&&&&&&&&&&&&&&&&&&&&&&&&&&&&&&&&&&&&&&&&&&&&&&&&&&&&&&&&&&&&&&&&&&&&&&&&&&&&&&&&&&&&&&&&&&&&&&&&&&&&&&&&&&",
"&&&&&&&&&&&&&&&&&&&&&&&&&&&&&&&&&&&&&&&&&&&&&&&&&&&&&&&&&&&&&&&&&&&&&&&&&&&&&&&&/55555555555555555555555555555555555555555555#&&",
"&&&&&&&&&&&&&&&&&&&&&&&&&&&&&&&&&&&&&&&&&&&&&&&&&&&&&&&&&&&&&&&&&&&&&&&&&&&&&&&&5555555555555555555555555555555555555555555555&&",
"&&&&&&&&&&&&&&&&&&&&&&&&&&&&&&&&&&&&&&&&&&&&&&&&&&&&&&&&&&&&&&&&&&&&&&&&&&&&&&&&5555555555555555555555555555555555555555555555&&",
"&&&&&&&&&&&&&&&&&&&&&&&&&&&&&&&&&&&&&&&&&&&&&&&&&&&&&&&&&&&&&&&&&&&&&&&&&&&&&&&&5555555555555555555555555555555555555555555555&&",
"&&&&&&&&&&&&&&&&&&&&&&&&&&&&&&&&&&&&&&&&&&&&&&&&&&&&&&&&&&&&&&&&&&&&&&&&&&&&&&&&[555555555555555555555555555555555555555555555&&",
"&&&&&&&&&&&&&&&&&&&&&&&&&&&&&&&&&&&&&&&&&&&&&&&&&&&&&&&&&&&&&&&&&&&&&&&&&&&&&&&&&555555.&&&&&&&&&&&&&&&&&&&&&&&&&&&&&&&&255555&&",
"&&&&&&&&&&&&&&&&&&&&&&&&&&&&&&&&&&&&&&&&&&&&&&&&&&&&&&&&&&&&&&&&&&&&&&&&&&&&&&&&&&555555&&&&&&&&&&&&&&&&&&&&&&&&&&&&&&&&)55555&&",
"&&&&&&&&&&&&&&&&&&&&&&&&&&&&&&&&&&&&&&&&&&&&&&&&&&&&&&&&&&&&&&&&&&&&&&&&&&&&&&&&&&=555555&&&&&&&&&&&&&&&&&&&&&&&&&&&&&&&)55555&&",
"&&&&&&&&&&&&&&&&&&&&&&&&&&&&&&&&&&&&&&&&&&&&&&&&&&&&&&&&&&&&&&&&&&&&&&&&&&&&&&&&&&&5555552&&&&&&&&&&&&&&&&&&&&&&&&&&&&&&)55555&&",
"&&&&&&&&&&&&&&&&&&&&&&&&&&&&&&&&&&&&&&&&&&&&&&&&&&&&&&&&&&&&&&&&&&&&&&&&&&&&&&&&&&&,555555&&&&&&&&&&&&&&&&&&&&&&&&&&&&&&)55555&&",
"&&&&&&&&&&&&&&&&&&&&&&#55.&&&&&&&&&&&&&&&&&&&&&&&&&&&&&&&&&&&&&&&&&&&&&&&&&&&&&&&&&&555555>&&&&&&&&&&&&&&&&&&&&&&&&&&&&&)55555&&",
"&&&&&&&&&&&&&&&&&&&&&&55555&&&&&&&&&&&&&&&&&&&&&&&&&&&&&&&&&&&&&&&&&&&&&&&&&&&&&&&&&5555555&&&&&&&&&&&&&&&&&&&&&&&&&&&&&)55555&&",
"&&&&&&&&&&&&&&&&&&&&&&555555&&&&&&&&&&&&&&&&&&&&&&&&&&&&&&&&&&&&&&&&&&&&&&&&&&&&&&&5555555.&&&&&&&&&&&&&&&&&&&&&&&&&&&&&)55555&&",
"&&&&&&&&&&&&&&&&&&&&&&55]555!&&&&&&&&&&&&&&&&&&&&&&&&&&&&&&&&&&&&&&&&&&&&&&&&&&&&&455555]5&&&&&&&&&&&&&&&&&&&&&&&&&&&&&&255555&&",
"&&&&&&&&&&&&&&&&&&&&&&55555555&&&&&&&&&&&&&&&&&&&&&&&&&&&&&&&&&&&&&&&&&&&&&&&&&&&55555555&&&&&&&&&&&&&&&&&&&&&&&&&&&&&&&)55555&&",
"&&&&&&&&&&&&&&&&&&&&&&555555555&&&&&&&&&&&&&&&&&&&&&&&&&&&&&&&&&&&&&&&&&&&&&&&&&55555555&&&&&&&&&&&&&&&&&&&&&&&&&&&&&&&&)55555&&",
"&&&&&&&&&&&&&&&&&&&&&&555555555!&&&&&&&&&&&&&&&&&&&&&&&&&&&&&&&&&&&&&&&&&&&&&&&55555555&&&&&&&&&&&&&&&&&&&&&&&&&&&&&&&&&)55555&&",
"&&&&&&&&&&&&&&&&&&&&&&5555&55555!&&&&&&&&&&&&&&&&&&&&&&&&&&&&&&&&&&&&&&&&&&&&&$5555555&&&&&&&&&&&&&&&&&&&&&&&&&&&&&&&&&&)55555&&",
"&&&&&&&&&&&&&&&&&&&&&&5555&&555555&&&&&&&&&&&&&&&&&&&&&&&&&&&&&&&&&&&&&&&&&&&55555555&&&&&&&&&&&&&&&&&&&&&&&&&&&&&&&&&&&)55555&&",
"&&&&&&&&&&&&&&&&&&&&&&5555&&&555555&&&&&&&&&&&&&&&&&&&&&&&&&&&&&&&&&&&&&&&&&55555555&&&&&&&&&&&&&&&&&&&&&&&&&&&&&&&&&&&&)55555&&",
"&&&&&&&&&&&&&&&&&&&&&&5555&&&&55555!&&&&&&&&&&&&&&&&&&&&&&&&&&&&&&&&&&&&&&&55555555&&&&&&&&&&&&&&&&&&&&&&&&&&&&&&&&&&&&&)55555&&",
"&&&&&&&&&&&&&&&&&&&&&&55]5&&&&&5]555!&&&&&&&&&&&&&&&&&&&&&&&&&&&&&&&&&&&&&$55555]51&&&&&&&&&&&&&&&&&&&&&&&&&&&&&&&&&&&&&255555&&",
"&&&&&&&&&&&&&&&&&&&&&&5555&&&&&&555555&&&&&&&&&&&&&&&&&&&&&&&&&&&&&&&&&&&55555555&&&&&&&&&&&&&&&&&&&&&&&&&&&&&&&&&&&&&&&)55555&&",
"&&&&&&&&&&&&&&&&&&&&&&5555&&&&&&&555555&&&&&&&&&&&&&&&&&&&&&&&&&&&&&&&&&55555555&&&&&&&&&&&&&&&&&&&&&&&&&&&&&&&&&&&&&&&&)55555&&",
"&&&&&&&&&&&&&&&&&&&&&&5555&&&&&&&&55555!&&&&&&&&&&&&&&&&&&&&&&&&&&&&&&&$5555555&&&&&&&&&&&&&&&&&&&&&&&&&&&&&&&&&&&&&&&&&)55555&&",
"&&&&&&&&&&&&&&&&&&&&&&5555&&&&&&&&&555555&&&&&&&&&&&&&&&&&&&&&&&&&&&&&55555555&&&&&&&&&&&&&&&&&&&&&&&&&&&&&&&&&&&&&&&&&&)55555&&",
"&&&&&&&&&&&&&&&&&&&&&&5555&&&&&&&&&&555555&&&&&&&&&&&&&&&&&&&&&&&&&&&55555555&&&&&&&&&&&&&&&&&&&&&&&&&&&&&&&&&&&&&&&&&&&)55555&&",
"&&&&&&&&&&&&&&&&&&&&&&5555&&&&&&&&&&&55555!&&&&&&&&&&&&&&&&&&&&&&&&&55555555&&&&&&&&&&&&&&&&&&&&&&&&&&&&&&&&&&&&&&&&&&&&)55555&&",
"&&&&&&&&&&&&&&&&&&&&&&5555&&&&&&&&&&&&55555!&&&&&&&&&&&&&&&&&&&&&&&$5555555&&&&&&&&&&&&&&&&&&&&&&&&&&&&&&&&&&&&&&&&&&&&&)55555&&",
"&&&&&&&&&&&&&&&&&&&&&&55]5&&&&&&&&&&&&&5]5555&&&&&&&&&&&&&&&&&&&&&555555]5&&&&&&&&&&&&&&&&&&&&&&&&&&&&&&&&&&&&&&&&&&&&&&255555&&",
"&&&&&&&&&&&&&&&&&&&&&&5555&&&&&&&&&&&&&&555555&&&&&&&&&&&&&&&&&&&55555555&&&&&&&&&&&&&&&&&&&&&&&&&&&&&&&&&&&&&&&&&&&&&&&)55555&&",
"&#555555555555555555555555&&&&&&&&&&&&&&&55555!&&&&&&&&&&&&&&&&&55555555&&&&&&&&&&&&&&&&&&&&&&&&&&&&&&&&&&&&&&&&&&&&&&&&)55555&&",
"&5555555555555555555555555&&&&&&&&&&&&&&&&555555&&&&&&&&&&&&&&&55555555&&&&&&&&&&&&&&&&&&&&&&&&&&&&&&&&&&&&&&&&&&&&&&&&&)55555&&",
"&5555555555555555555555555&&&&&&&&&&&&&&&&&555555&&&&&&&&&&&&&55555555&&&&&&&&&&&&&&&&&&&&&&&&&&&&&&&&&&&&&&&&&&&&&&&&&&)55555&&",
"&&55555555555555555555555}&&&&&&&&&&&&&&&&&&555555&&&&&&&&&&&55555555&&&&&&&&&&&&&&&&&&&&&&&&&&&&&&&&&&&&&&&&&&&&&&&&&&&)55555&&",
"&&}55555'&&&&&&&&&&&&&&&&&&&&&&&&&&&&&&&&&&&&55555!&&&&&&&&&<5555555&&&&&&&&&&&&&&&&&&&&&&&&&&&&&&&&&&&&&&&&&&&&&255&&&&)55555&&",
"&&&&55555.&&&&&&&&&&&&&&&&&&&&&&&&&&&&&&&&&&&&555555&&&&&&&55555555&&&&&&&&&&&&&&&&&&&&&&&&&&&&&&&&&&&&&&&&&&&&&555555&&)55555&&",
"&&&&&555]5.&&&&&&&&&&&&&&&&&&&&&&&&&&&&&&&&&&&&5]5555&&&&&555555]5&&&&&&&&&&&&&&&&&&&&&&&&&&&&&&&&&&&&&&&&&&&&&5]555555=255555&&",
"&&&&&&55555.&&&&&&&&&&&&&&&&&&&&&&&&&&&&&&&&&&&&55555!&&&55555555&&&&&&&&&&&&&&&&&&&&&&&&&&&&&&&&&&&&&&&&&&&&&5555555555555555&&",
"&&&&&&}55555.&&&&&&&&&&&&&&&&&&&&&&&&&&&&&&&&&&&&55555!&(5555555&&&&&&&&&&&&&&&&&&&&&&&&&&&&&&&&&&&&&&&&&&&&&55555555555555555&&",
"&&&&&&&&55555.&&&&&&&&&&&&&&&&&&&&&&&&&&&&&&&&&&&&5555555555555&&&&&&&&&&&&&&&&&&&&&&&&&&&&&&&&&&&&&&&&&&&&&555555555555555555&&",
"&&&&&&&&&55555.&&&&&&&&&&&&&&&&&&&&&&&&&&&&&&&&&&&&55555555555&&&&&&&&&&&&&&&&&&&&&&&&&&&&&&&&&&&&&&&&&&&&&55555555}5555555555&&",
"&&&&&&&&&}55555.&&&&&&&&&&&&&&&&&&&&&&&&&&&&&&&&&&&&555555555&&&&&&&&&&&&&&&&&&&&&&&&&&&&&&&&&&&&&&&&&&&&&55555555&&@555555555&&",
"&&&&&&&&&&&555555&&&&&&&&&&&&&&&&&&&&&&&&&&&&&&&&&&&55555555&&&&&&&&&&&&&&&&&&&&&&&&&&&&&&&&&&&&&&&&&&&&&5555555>&&&&&&5555555&&",
"&&&&&&&&&&&&55555'&&&&&&&&&&&&&&&&&&&&&&&&&&&&&&&&&55555555&&&&&&&&&&&&&&&&&&&&&&&&&&&&&&&&&&&&&&&&&&&&&55555555&&&&&&&&*5555_&&",
"&&&&&&&&&&&&&555]5'&&&&&&&&&&&&&&&&&&&&&&&&&&&&&&&555555]5&&&&&&&&&&&&&&&&&&&&&&&&&&&&&&&&&&&&&&&&&&&&&5]555555&&&&&&&&&&&55^&&&",
"&&&&&&&&&&&&&(55555.&&&&&&&&&&&&&&&&&&&&&&&&&&&&&(5555555&&&&&&&&&&&&&&&&&&&&&&&&&&&&&&&&&&&&&&&&&&&&&55555555&&&&&&&&&&&&&&&&&&",
"&&&&&&&&&&&&&&&55555'&&&&&&&&&&&&&&&&&&&&&&&&&&&55555555&&&&&@55'&&&&&&&&&&&&&&&&&&&&&&&&&&&&&&&&&&&&5555555>&&&&&&&&&&&&&&&&&&&",
"&&&&&&&&&&&&&&&&55555.&&&&&&&&&&&&&&&&&&&&&&&&&55555555&&&&&&55555&&&&&&&&&&&&&&&&&&&&&&&&&&&&&&&&&&55555555&&&&&&&&&&&&&&&&&&&&",
"&&&&&&&&&&&&&&&&&55555.&&&&&&&&&&&&&&&&&&&&&&&45555555&&&&&&5555555&&&&&&&&&&&&&&&&&&&&&&&&&&&&&&&&55555555&&&&&&&&&&&&&&&&&&&&&",
"&&&&&&&&&&&&&&&&&(55555.&&&&&&&&&&&&&&&&&&&&&&5555555&&&&&&555555555&&&&&&&&&&&&&&&&&&&&&&&&&&&&&&55555555&&&&&&&&&&&&&&&&&&&&&&",
"&&&&&&&&&&&&&&&&&&&55555'&&&&&&&&&&&&&&&&&&&&=555555&&&&&155555555555&&&&&&&&&&&&&&&&&&&&&&&&&&&&55555555&&&&&&&&&&&&&&&&&&&&&&&",
"&&&&&&&&&&&&&&&&&&&&55555'&&&&&&&&&&&&&&&&&&&255555&&&&&&5555555555555&&&&&&&&&&&&&&&&&&&&&&&&&&55555555&&&&&&&&&&&&&&&&&&&&&&&&",
"&&&&&&&&&&&&&&&&&&&&(555]5.&&&&&&&&&&&&&&&&&&555]5)&&&&&]5555555]555555&&&&&&&&&&&&&&&&&&&&&&&&5]555555&&&&&&&&&&&&&&&&&&&&&&&&&",
"&&&&&&&&&&&&&&&&&&&&&&555555&&&&&&&&&&&&&&&&&555555&&&+5555555}&55555555&&&&&&&&&&&&&&&&&&&&&&5555555>&&&&&&&&&&&&&&&&&&&&&&&&&&",
"&&&&&&&&&&&&&&&&&&&&&&&55555'&&&&&&&&&&&&&&&&*5555521]5555555~&&&55555555&&&&&&&&&&&&&&&&&&&&55555555&&&&&&&&&&&&&&&&&&&&&&&&&&&",
"&&&&&&&&&&&&&&&&&&&&&&&&55555'&&&&&&&&&&&&<4+#555555555555555&&&&&55555555&&&&&&&&&&&&&&&&&&55555555&&&&&&&&&&&&&&&&&&&&&&&&&&&&",
"&&&&&&&&&&&&&&&&&&&&&&&&(55555.&&&&&&&&=55555555555555555555&&&&&&&55555555&&&&&&&&&&&&&&&&55555555&&&&&&&&&&&&&&&&&&&&&&&&&&&&&",
"&&&&&&&&&&&&&&&&&&&&&&&&&&55555'&&&&&&*5555555555555555555~&&&&&&&&&55555555&&&&&&&&&&&&&&5555555>&&&&&&&&&&&&&&&&&&&&&&&&&&&&&&",
"&&&&&&&&&&&&&&&&&&&&&&&&&&&55555'&&&&*5555555555555555555=&&&&&&&&&&&55555555&&&&&&&&&&&&55555555&&&&&&&&&&&&&&&&&&&&&&&&&&&&&&&",
"&&&&&&&&&&&&&&&&&&&&&&&&&&&&55555.&&{555555555555555555]&&&&&&&&&&&&&&55555555&&&&&&&&&&55555555&&&&&&&&&&&&&&&&&&&&&&&&&&&&&&&&",
"&&&&&&&&&&&&&&&&&&&&&&&&&&&&&555]5555555]5555555]5&&&&&&&&&&&&&&&&&&&&&5]555555&&&&&&&=5]55555>&&&&&&&&&&&&&&&&&&&&&&&&&&&&&&&&&",
"&&&&&&&&&&&&&&&&&&&&&&&&&&&&&&555555555555&&,55555 &&&&&&&&&&&&&&&&&&&&&55555555&&&&&&55555555&&&&&&&&&&&&&&&&&&&&&&&&&&&&&&&&&&",
"&&&&&&&&&&&&&&&&&&&&&&&&&&&&&&&5555555555&&&&5555555.&&&&&&&&&&&&&&&&&&&&55555555&&&&55555555&&&&&&&&&&&&&&&&&&&&&&&&&&&&&&&&&&&",
"&&&&&&&&&&&&&&&&&&&&&&&&&&&&&&&(55555555&&&&&555555555&&&&&&&&&&&&&&&&&&&&55555555&&55555555&&&&&&&&&&&&&&&&&&&&&&&&&&&&&&&&&&&&",
"&&&&&&&&&&&&&&&&&&&&&&&&&&&&&&&55555555&&&&&555555555551&&&&&&&&&&&&&&&&&&&555555555555555>&&&&&&&&&&&&&&&&&&&&&&&&&&&&&&&&&&&&&",
"&&&&&&&&&&&&&&&&&&&&&&&&&&&&&&}5555555&&&&&5555555555555&&&&&&&&&&&&&&&&&&&&55555555555555&&&&&&&&&&&&&&&&&&&&&&&&&&&&&&&&&&&&&&",
"&&&&&&&&&&&&&&&&&&&&&&&&&&&&&&5555555&&&&&55555555555555/&&&&&&&&&&&&&&&&&&&&555555555555&&&&&&&&&&&&&&&&&&&&&&&&&&&&&&&&&&&&&&&",
"&&&&&&&&&&&&&&&&&&&&&&&&&&&&&.555555&&&&&]5555555}5555555&&&&&&&&&&&&&&&&&&&&&5555555555&&&&&&&&&&&&&&&&&&&&&&&&&&&&&&&&&&&&&&&&",
"&&&&&&&&&&&&&&&&&&&&&&&&&&&&&555]55&&&&&]555555)&&&25555]5 &&&&&&&&&&&&&&&&&&&&5]55555>&&&&&&&&&&&&&&&&&&&&&&&&&&&&&&&&&&&&&&&&&",
"&&&&&&&&&&&&&&&&&&&&&&&&&&&&&555555&&&&5555555]&&&&'55555555@&&&&&&&&&&&&&&&&&&&555555&&&&&&&&&&&&&&&&&&&&&&&&&&&&&&&&&&&&&&&&&&",
"&&&&&&&&&&&&&&&&&&&&&&&&&&&&&555555&&&25555555&&&&&5555555555&&&&&&&&&&&&&&&&&&&&55555.&&&&&&&&&&&&&&&&&&&&&&&&&&&&&&&&&&&&&&&&&",
"&&&&&&&&&&&&&&&&&&&&&&&&&&&&&5555555355555555&&&&&555555555555&&&&&&&&&&&&&&&&&&&&555555&&&&&&&&&&&&&&&&&&&&&&&&&&&&&&&&&&&&&&&&",
"&&&&&&&&&&&&&&&&&&&&&&&&&&&&&;55555555555555&&&&&55555555555555&&&&&&&&&&&&&&&&&&&&555555&&&&&&&&&&&&&&&&&&&&&&&&&&&&&&&&&&&&&&&",
"&&&&&&&&&&&&&&&&&&&&&&&&&&&&&&5555555555555&&&&&555555555555555&&&&&&&&&&&&&&&&&&&&&555555&&&&&&&&&&&&&&&&&&&&&&&&&&&&&&&&&&&&&&",
"&&&&&&&&&&&&&&&&&&&&&&&&&&&&&&&55555555555&&&&&5555555.&&555555@&&&&&&&&&&&&&&55&&&&&55555&&&&&&&&&&&&&&&&&&&&&&&&&&&&&&&&&&&&&&",
"&&&&&&&&&&&&&&&&&&&&&&&&&&&&&&&&555555555&&&&&5555555=&&&&55555555&&&&&&&&&&&5555^&&&&5555@&&&&&&&&&&&&&&&&&&&&&&&&&&&&&&&&&&&&&",
"&&&&&&&&&&&&&&&&&&&&&&&&&&&&&&&&&,555555]&&&&555]555{&&&&2555555]55 &&&&&&&&&555]5^&&&55]5 &&&&&&&&&&&&&&&&&&&&&&&&&&&&&&&&&&&&&",
"&&&&&&&&&&&&&&&&&&&&&&&&&&&&&&&&&&&{55555*&&5555555*&&&&@55555555555&&&&&&&&&-55555&&&5555&&&&&&&&&&&&&&&&&&&&&&&&&&&&&&&&&&&&&&",
"&&&&&&&&&&&&&&&&&&&&&&&&&&&&&&&&&&&@55555555555555*&&&&@555555555555)&&&&&&&&&'55555555555&&&&&&&&&&&&&&&&&&&&&&&&&&&&&&&&&&&&&&",
"&&&&&&&&&&&&&&&&&&&&&&&&&&&&&&&&&&&&55555555555552&&&&'55555555555555&&&;52&&&&'5555555555&&&&&&&&&&&&&&&&&&&&&&&&&&&&&&&&&&&&&&",
"&&&&&&&&&&&&&&&&&&&&&&&&&&&&&&&&&&&&&555555555552&&&&35555555#&|55555'&&555.&&&&.55555555&&&&&&&&&&&&&&&&&&&&&&&&&&&&&&&&&&&&&&&",
"&&&&&&&&&&&&&&&&&&&&&&&&&&&&&&&&&&&&&&555555555]&&&&#5555555>&&&555555&&5555.&&&&5555552&&&&&&&&&&&&&&&&&&&&&&&&&&&&&&&&&&&&&&&&",
"&&&&&&&&&&&&&&&&&&&&&&&&&&&&&&&&&&&&&&&'5555555&&&&/5555555&&&&&555555&&555555&&&5555&&&&&&&&&&&&&&&&&&&&&&&&&&&&&&&&&&&&&&&&&&&",
"&&&&&&&&&&&&&&&&&&&&&&&&&&&&&&&&&&&&&&&&&&555552&&_5555555&&&&&)55555>&&&555555'55555&&&&&&&&&&&&&&&&&&&&&&&&&&&&&&&&&&&&&&&&&&&",
"&&&&&&&&&&&&&&&&&&&&&&&&&&&&&&&&&&&&&&&&&&555555]5555555]%&&&&)5]5555&&&&&555555]555/&&&&&&&&&&&&&&&&&&&&&&&&&&&&&&&&&&&&&&&&&&&",
"&&&&&&&&&&&&&&&&&&&&&&&&&&&&&&&&&&&&&&&&&&55555555555555/&&&&255555555&&&&&555555555&&&&&&&&&&&&&&&&&&&&&&&&&&&&&&&&&&&&&&&&&&&&",
"&&&&&&&&&&&&&&&&&&&&&&&&&&&&&&&&&&&&&&&&&&&555555555555#&&&&25555555555|&&&[555555]&&&&&&&&&&&&&&&&&&&&&&&&&&&&&&&&&&&&&&&&&&&&&",
"&&&&&&&&&&&&&&&&&&&&&&&&&&&&&&&&&&&&&&&&&&&&5555555555#&&&&2555555555555&&&+55554&&&&&&&&&&&&&&&&&&&&&&&&&&&&&&&&&&&&&&&&&&&&&&&",
"&&&&&&&&&&&&&&&&&&&&&&&&&&&&&&&&&&&&&&&&&&&&&55555555'&&&&*5555555&!55555&&55555&&&&&&&&&&&&&&&&&&&&&&&&&&&&&&&&&&&&&&&&&&&&&&&&",
"&&&&&&&&&&&&&&&&&&&&&&&&&&&&&&&&&&&&&&&&&&&&&&&}555555&&&55555555&&&{5555555555&&&&&&&&&&&&&&&&&&&&&&&&&&&&&&&&&&&&&&&&&&&&&&&&&",
"&&&&&&&&&&&&&&&&&&&&&&&&&&&&&&&&&&&&&&&&&&&&&&&&{55555]155555555'&&&&{555555555&&&&&&&&&&&&&&&&&&&&&&&&&&&&&&&&&&&&&&&&&&&&&&&&&",
"&&&&&&&&&&&&&&&&&&&&&&&&&&&&&&&&&&&&&&&&&&&&&&&&&5555555555555555'&&&&]5555555&&&&&&&&&&&&&&&&&&&&&&&&&&&&&&&&&&&&&&&&&&&&&&&&&&",
"&&&&&&&&&&&&&&&&&&&&&&&&&&&&&&&&&&&&&&&&&&&&&&&&&5555555]5555555]5'&&&:5]555|&&&&&&&&&&&&&&&&&&&&&&&&&&&&&&&&&&&&&&&&&&&&&&&&&&&",
"&&&&&&&&&&&&&&&&&&&&&&&&&&&&&&&&&&&&&&&&&&&&&&&&&&55555555555&555555&&55552&&&&&&&&&&&&&&&&&&&&&&&&&&&&&&&&&&&&&&&&&&&&&&&&&&&&&",
"&&&&&&&&&&&&&&&&&&&&&&&&&&&&&&&&&&&&&&&&&&&&&&&&&&&555555555&&&55555555555%&&&&&&&&&&&&&&&&&&&&&&&&&&&&&&&&&&&&&&&&&&&&&&&&&&&&&",
"&&&&&&&&&&&&&&&&&&&&&&&&&&&&&&&&&&&&&&&&&&&&&&&&&&&&>55555/&&&&&5555555555&&&&&&&&&&&&&&&&&&&&&&&&&&&&&&&&&&&&&&&&&&&&&&&&&&&&&&",
"&&&&&&&&&&&&&&&&&&&&&&&&&&&&&&&&&&&&&&&&&&&&&&&&&&&&&&&%&&&&&&&&}55555555&&&&&&&&&&&&&&&&&&&&&&&&&&&&&&&&&&&&&&&&&&&&&&&&&&&&&&&",
"&&&&&&&&&&&&&&&&&&&&&&&&&&&&&&&&&&&&&&&&&&&&&&&&&&&&&&&&&&&&&&&&&&{5555(&&&&&&&&&&&&&&&&&&&&&&&&&&&&&&&&&&&&&&&&&&&&&&&&&&&&&&&&",
"&&&&&&&&&&&&&&&&&&&&&&&&&&&&&&&&&&&&&&&&&&&&&&&&&&&&&&&&&&&&&&&&&&&&&&&&&&&&&&&&&&&&&&&&&&&&&&&&&&&&&&&&&&&&&&&&&&&&&&&&&&&&&&&&",
"&&&&&&&&&&&&&&&&&&&&&&&&&&&&&&&&&&&&&&&&&&&&&&&&&&&&&&&&&&&&&&&&&&&&&&&&&&&&&&&&&&&&&&&&&&&&&&&&&&&&&&&&&&&&&&&&&&&&&&&&&&&&&&&&",
"&&&&&&&&&&&&&&&&&&&&&&&&&&&&&&&&&&&&&&&&&&&&&&&&&&&&&&&&&&&&&&&&&&&&&&&&&&&&&&&&&&&&&&&&&&&&&&&&&&&&&&&&&&&&&&&&&&&&&&&&&&&&&&&&",
"&&&&&&&&&&&&&&&&&&&&&&&&&&&&&&&&&&&&&&&&&&&&&&&&&&&&&&&&&&&&&&&&&&&&&&&&&&&&&&&&&&&&&&&&&&&&&&&&&&&&&&&&&&&&&&&&&&&&&&&&&&&&&&&&",
"&&&&&&&&&&&&&&&&&&&&&&&&&&&&&&&&&&&&&&&&&&&&&&&&&&&&&&&&&&&&&&&&&&&&&&&&&&&&&&&&&&&&&&&&&&&&&&&&&&&&&&&&&&&&&&&&&&&&&&&&&&&&&&&&",
"&&&&&&&&&&&&&&&&&&&&&&&&&&&&&&&&&&&&&&&&&&&&&&&&&&&&&&&&&&&&&&&&&&&&&&&&&&&&&&&&&&&&&&&&&&&&&&&&&&&&&&&&&&&&&&&&&&&&&&&&&&&&&&&&",
"&&&&&&&&&&&&&&&&&&&&&&&&&&&&&&&&&&&&&&&&&&&&&&&&&&&&&&&&&&&&&&&&&&&&&&&&&&&&&&&&&&&&&&&&&&&&&&&&&&&&&&&&&&&&&&&&&&&&&&&&&&&&&&&&",
"&&&&&&&&&&&&&&&&&&&&&&&&&&&&&&&&&&&&&&&&&&&&&&&&&&&&&&&&&&&&&&&&&&&&&&&&&&&&&&&&&&&&&&&&&&&&&&&&&&&&&&&&&&&&&&&&&&&&&&&&&&&&&&&&",
"&&&&&&&&&&&&&&&&&&&&&&&&&&&&&&&&&&&&&&&&&&&&&&&&&&&&&&&&&&&&&&&&&&&&&&&&&&&&&&&&&&&&&&&&&&&&&&&&&&&&&&&&&&&&&&&&&&&&&&&&&&&&&&&&",
"&&&&&&&&&&&&&&&&&&&&&&&&&&&&&&&&&&&&&&&&&&&&&&&&&&&&&&&&&&&&&&&&&&&&&&&&&&&&&&&&&&&&&&&&&&&&&&&&&&&&&&&&&&&&&&&&&&&&&&&&&&&&&&&&",
"&&&&&&&&&&&&&&&&&&&&&&&&&&&&&&&&&&&&&&&&&&&&&&&&&&&&&&&&&&&&&&&&&&&&&&&&&&&&&&&&&&&&&&&&&&&&&&&&&&&&&&&&&&&&&&&&&&&&&&&&&&&&&&&&",
};