/* XPM */
static char *image_xpm[] = {
/* width height ncolors chars_per_pixel */
"64 64 22 1",
"  c #fff7ef",
". c #fff7f7",
"+ c #fffff7",
"@ c #ffffff",
"# c #f77b3a",
"$ c #ffefe6",
"% c #ffe6d6",
"& c #f7a573",
"* c #ffceb5",
"= c #f78442",
"- c #f77b42",
"; c #f76b29",
"> c #ffbd9c",
", c #ffb58c",
"' c #f79c6b",
") c #ffd6c5",
"! c #ffc5a5",
"~ c #ffb594",
"{ c #ffc5ad",
"] c #ffe6de",
"^ c #f77331",
"/ c #f76b21",
"@@@@@@@@@@@@@@@@@@@@@@@@@@@@@@@@@@@@@@@@@@@@@@@@@@@@@@@@@@@@@@@@",
"@@@@@@@@@@@@@@@@@@@@@@@@@@@@@@@@@@@@@@@@@@@@@@@@@@@@@@@@@@@@@@@@",
"@@@@@@@@@@@@@@@@@@@@@@@@@@@@@@@@@@@@@@@@@@@@@@@@@@@@@@@@@@@@@@@@",
"@@@@@@@@@@@@@@@@@@@@@@@@@@@@@@@@@@@@@@@@@@@@@@@@@@@@@@@@@@@@@@@@",
"@@@@@@@@@@@@@@@@@@@@@@@@@@@@@@@@@@@@@@@@@@@@@@@@@@@@@@@@@@@@@@@@",
"@@@@@@@@@@@@@@@@@@@@@@@@@@@@@@@@@@@@@@@@@@@@@@@@@@@@@@@@@@@@@@@@",
"@@@@@@@@@@@@@@@@@@@@@@@@@@@@@@@@@@@@@@@@@@@@@@@@@@@@@@@@@@@@@@@@",
"@@@@@@@@@@@@@@@@@@@@@@@@@@@@@@@@@@@@@@@@@@@@@@@@@@@@@@@@@@@@@@@@",
"@@@@@@@@@@@@@@@@@@@@@@@@@@@@@@@@@@@@@@@@//////////////////////@@",
"@@@@@@@@@@@@@@@@@@@@@@@@@@@@@@@@@@@@@@@///////////////////////]@",
"@@@@@@@@@@@@@@@@@@@@@@@@@@@@@@@@@@@@@@@@//////////////////////%@",
"@@@@@@@@@@@@@@@@@@@@@@@@@@@@@@@@@@@@@@@@///'@@@@@@@@@@@@@@@@//%@",
"@@@@@@@@@@@@@@@@@@@@@@@@@@@@@@@@@@@@@@@@@///@@@@@@@@@@@@@@@@//%@",
"@@@@@@@@@@@/$@@@@@@@@@@@@@@@@@@@@@@@@@@@@@///@@@@@@@@@@@@@@@//%@",
"@@@@@@@@@@@//$@@@@@@@@@@@@@@@@@@@@@@@@@@@////@@@@@@@@@@@@@@@//%@",
"@@@@@@@@@@@///$@@@@@@@@@@@@@@@@@@@@@@@@@;///@@@@@@@@@@@@@@@@//%@",
"@@@@@@@@@@@////$@@@@@@@@@@@@@@@@@@@@@@@////@@@@@@@@@@@@@@@@@//%@",
"@@@@@@@@@@@/////$@@@@@@@@@@@@@@@@@@@@@////@@@@@@@@@@@@@@@@@@//%@",
"@@@@@@@@@@@//@!//$@@@@@@@@@@@@@@@@@@@////@@@@@@@@@@@@@@@@@@@//%@",
"@@@@@@@@@@@//@@///$@@@@@@@@@@@@@@@@@////@@@@@@@@@@@@@@@@@@@@//%@",
"@@@@@@@@@@@//@@@!//$@@@@@@@@@@@@@@@////@@@@@@@@@@@@@@@@@@@@@//%@",
"@@@@@@@@@@@//@@@@///@@@@@@@@@@@@@@////@@@@@@@@@@@@@@@@@@@@@@//%@",
"@@@@@@@@@@@//@@@@@!//$@@@@@@@@@@@////@@@@@@@@@@@@@@@@@@@@@@@//%@",
"@@@@@@@@@@@//@@@@@@///@@@@@@@@@@;///@@@@@@@@@@@@@@@@@@@@@@@@//%@",
"/////////////@@@@@@@///$@@@@@@@////@@@@@@@@@@@@@@@@@@@@@@@@@//%@",
"////////////>@@@@@@@@///@@@@@@////@@@@@@@@@@@@@@@@@@@@@@@@@@//%@",
"@/// @@@@@@@@@@@@@@@@@///$@@@////@@@@@@@@@@@@@@@@@@@@@@$//@@//%@",
"@@~// @@@@@@@@@@@@@@@@@!//$@////@@@@@@@@@@@@@@@@@@@@@@-///////%@",
"@@@///@@@@@@@@@@@@@@@@@@///////@@@@@@@@@@@@@@@@@@@@@@$////////%@",
"@@@@~// @@@@@@@@@@@@@@@@@!////@@@@@@@@@@@@@@@@@@@@@@-///@@////%@",
"@@@@@///@@@@@@@@@@@@@@@@@////@@@@@@@@@@@@@@@@@@@@@@$///&@@@///@@",
"@@@@@@//; @@@@@@@@@@@@@@;///@@@@@@@@@@@@@@@@@@@@@@-///@@@@@@@@@@",
"@@@@@@@///@@@@@@@@@@@@@////@@@//@@@@@@@@@@@@@@@@@$///&@@@@@@@@@@",
"@@@@@@@@/// @@@@@@@@@@{///@@@////@@@@@@@@@@@@@@@$///@@@@@@@@@@@@",
"@@@@@@@@@///@@@@@@@@@@///@@@//////@@@@@@@@@@@@@$///&@@@@@@@@@@@@",
"@@@@@@@@@@///@@@@@@@@@///@@////////@@@@@@@@@@@$///@@@@@@@@@@@@@@",
"@@@@@@@@@@@///@@@@@@@@////////@@////@@@@@@@@@$///&@@@@@@@@@@@@@@",
"@@@@@@@@@@@@///@@@@//////////@@@@////@@@@@@@$///&@@@@@@@@@@@@@@@",
"@@@@@@@@@@@@@///@@/////////;@@@@@@////@@@@@$///&@@@@@@@@@@@@@@@@",
"@@@@@@@@@@@@@@//;////+//;@@@@@@@@@@////@@@$///&@@@@@@@@@@@@@@@@@",
"@@@@@@@@@@@@@@@/////@@////.@@@@@@@@@////@@///&@@@@@@@@@@@@@@@@@@",
"@@@@@@@@@@@@@@@////@@//////@@@@@@@@@@///////&@@@@@@@@@@@@@@@@@@@",
"@@@@@@@@@@@@@@////@@////////@@@@@@@@@@/////&@@@@@@@@@@@@@@@@@@@@",
"@@@@@@@@@@@@@@///@@////@@////@@@@@@@@@@///&@@@@@@@@@@@@@@@@@@@@@",
"@@@@@@@@@@@@@@///@^///@@@/////]@@@@@@@@@///@@@@@@@@@@@@@@@@@@@@@",
"@@@@@@@@@@@@@@%//////@@@///////@@@@@@@@@@///@@@@@@@@@@@@@@@@@@@@",
"@@@@@@@@@@@@@@@/////@@@///=@////@@@@@@//@@///@@@@@@@@@@@@@@@@@@@",
"@@@@@@@@@@@@@@@@@///@@//;#@@////;)@@@@//;@+//@@@@@@@@@@@@@@@@@@@",
"@@@@@@@@@@@@@@@@@)//////#@@///////@@@@@/////*@@@@@@@@@@@@@@@@@@@",
"@@@@@@@@@@@@@@@@@@/////^@@////@'//@///@@///'@@@@@@@@@@@@@@@@@@@@",
"@@@@@@@@@@@@@@@@@@@@///@@////@@///@@/// //@@@@@@@@@@@@@@@@@@@@@@",
"@@@@@@@@@@@@@@@@@@@@@///////@@^///@@@/////@@@@@@@@@@@@@@@@@@@@@@",
"@@@@@@@@@@@@@@@@@@@@@//////@@//////{@;//@@@@@@@@@@@@@@@@@@@@@@@@",
"@@@@@@@@@@@@@@@@@@@@@@'///@@#///@=/////@@@@@@@@@@@@@@@@@@@@@@@@@",
"@@@@@@@@@@@@@@@@@@@@@@@@////////@@-///-@@@@@@@@@@@@@@@@@@@@@@@@@",
"@@@@@@@@@@@@@@@@@@@@@@@@;///////;@@//@@@@@@@@@@@@@@@@@@@@@@@@@@@",
"@@@@@@@@@@@@@@@@@@@@@@@@@,///@@/////.@@@@@@@@@@@@@@@@@@@@@@@@@@@",
"@@@@@@@@@@@@@@@@@@@@@@@@@@@@@@@@////@@@@@@@@@@@@@@@@@@@@@@@@@@@@",
"@@@@@@@@@@@@@@@@@@@@@@@@@@@@@@@@@@@@@@@@@@@@@@@@@@@@@@@@@@@@@@@@",
"@@@@@@@@@@@@@@@@@@@@@@@@@@@@@@@@@@@@@@@@@@@@@@@@@@@@@@@@@@@@@@@@",
"@@@@@@@@@@@@@@@@@@@@@@@@@@@@@@@@@@@@@@@@@@@@@@@@@@@@@@@@@@@@@@@@",
"@@@@@@@@@@@@@@@@@@@@@@@@@@@@@@@@@@@@@@@@@@@@@@@@@@@@@@@@@@@@@@@@",
"@@@@@@@@@@@@@@@@@@@@@@@@@@@@@@@@@@@@@@@@@@@@@@@@@@@@@@@@@@@@@@@@",
"@@@@@@@@@@@@@@@@@@@@@@@@@@@@@@@@@@@@@@@@@@@@@@@@@@@@@@@@@@@@@@@@",
};